<svg width="201" height="139" viewBox="0 0 201 139" fill="none" xmlns="http://www.w3.org/2000/svg"><path d="M171.137 34.495l2.427-1.257 2.417 1.286a.38.38 0 00.551-.397l-.445-2.696 1.972-1.903a.38.38 0 00-.203-.647l-2.707-.406-1.199-2.464c-.135-.28-.531-.28-.676 0l-1.228 2.444-2.717.377a.374.374 0 00-.212.638l1.952 1.923-.483 2.696c-.048.309.28.54.551.406z" fill="#86B1F2"/><path d="M166.045 83.93H46.425v12.513h119.62V83.929z" fill="#F47257"/><path d="M134.231 128.224c-26.973-14.253-56.276-23.027-86.352-25.858 1.112-13.045 2.233-26.09 3.345-39.134 34.775 3.276 68.65 13.421 99.839 29.896-5.608 11.702-11.225 23.394-16.832 35.096z" fill="#6C53E4"/><path d="M50.54 95.206c.763-8.136 1.517-16.272 2.28-24.408 3.162.329 5.995-1.71 6.333-4.638 28.994 3.643 57.252 12.098 83.713 25.065-1.18 2.677.203 5.972 3.055 7.45-3.442 7.334-6.893 14.658-10.335 21.992-2.62-1.362-5.723-.232-6.903 2.435-23.231-11.382-48.048-18.823-73.513-22.011.348-2.909-1.73-5.585-4.63-5.885z" fill="#D4CBFE"/><path d="M112.783 96.55c-2.427 6.995-9.929 10.561-16.88 8.425-6.951-2.154-11.418-9.411-9.852-16.678 1.557-7.256 9.272-11.595 17.093-9.18 7.821 2.416 12.065 10.446 9.639 17.432z" fill="#50BFA5"/><path d="M95.836 102.511l.58-2.348a12.8 12.8 0 01-2.832-1.324c-.667-.425-.9-1.285-.542-1.961.01-.03.03-.058.039-.087.396-.754 1.363-.996 2.098-.513a9.188 9.188 0 002.6 1.199c1.422.396 2.533.145 2.785-.84.242-.938-.406-1.76-2.127-2.9-2.485-1.642-4.07-3.353-3.52-5.759.494-2.183 2.505-3.488 5.444-3.227l.58-2.348c.86.241 1.721.483 2.581.734-.184.725-.367 1.45-.551 2.165.938.309 1.692.666 2.291 1.024.745.435 1.006 1.353.6 2.039-.426.715-1.383.918-2.137.454a8.542 8.542 0 00-2.194-.966c-1.683-.474-2.398.067-2.562.763-.203.821.58 1.575 2.542 2.986 2.765 1.913 3.597 3.652 2.988 5.846-.609 2.184-2.678 3.546-5.627 3.227-.213.841-.435 1.672-.648 2.512-.783-.222-1.585-.454-2.388-.676z" fill="#3C8F7C"/><path d="M81.922 88.027a248.602 248.602 0 00-20.805-3.865c.165-1.256.32-2.512.484-3.759a251.564 251.564 0 0121.094 3.923 415.816 415.816 0 01-.773 3.701zm53.607 19.025a250.846 250.846 0 00-19.509-8.532c.415-1.188.831-2.377 1.256-3.565a257.791 257.791 0 0119.79 8.657c-.522 1.15-1.025 2.3-1.537 3.44z" fill="#50BFA5"/><path d="M146.83 83.446c-27.833 5.807-54.332 17.46-78.105 34.322-6.42-11.083-12.849-22.157-19.268-33.24 27.495-19.5 58.132-32.97 90.306-39.685 2.35 12.87 4.708 25.742 7.067 38.603z" fill="#6C53E4"/><path d="M66.704 110.395c-3.964-6.947-7.918-13.904-11.872-20.852 2.514-1.749 3.47-5.17 2.098-7.71 23.425-15.538 48.986-26.767 75.718-33.28.618 2.87 3.47 4.62 6.39 3.982 1.527 8.02 3.065 16.04 4.592 24.05-2.688.59-4.35 3.45-3.741 6.32-23.474 5.71-45.922 15.576-66.495 29.22-1.363-2.532-4.38-3.334-6.69-1.73z" fill="#D4CBFE"/><path d="M113.396 71.909c2.098 7.111-1.46 14.706-7.783 17.431-6.322 2.706-13.65-.222-16.531-6.996-2.881-6.754.396-15.112 7.521-18.166 7.096-3.063 14.705.628 16.793 7.73z" fill="#6C53E4"/><path d="M104.204 87.417l-.87-2.232a10.82 10.82 0 01-2.833.744c-.725.087-1.383-.445-1.489-1.218 0-.029-.01-.058-.01-.096-.125-.85.455-1.662 1.267-1.74a8.108 8.108 0 002.581-.695c1.267-.59 1.943-1.498 1.586-2.445-.339-.899-1.276-1.14-3.181-.957-2.746.27-4.863-.077-5.8-2.338-.842-2.049-.088-4.368 2.223-6.02-.29-.744-.59-1.488-.88-2.232.774-.358 1.537-.715 2.31-1.063.262.696.532 1.382.794 2.078.87-.348 1.614-.542 2.262-.648.793-.126 1.489.435 1.576 1.247.087.83-.513 1.613-1.325 1.71a7.346 7.346 0 00-2.156.628c-1.508.686-1.73 1.575-1.47 2.232.31.773 1.306.889 3.539.754 3.113-.242 4.679.618 5.453 2.754.763 2.116 0 4.522-2.359 6.145.309.802.609 1.604.918 2.406-.715.319-1.431.648-2.136.986z" fill="#D4CBFE"/><path d="M85.883 84.74a231.703 231.703 0 00-17.508 10.146c-.58-1.101-1.15-2.203-1.73-3.295a234.87 234.87 0 0117.75-10.29c.502 1.15.995 2.3 1.488 3.44z" fill="#50BFA5"/><path d="M136.02 65.792a223.715 223.715 0 00-19.142 5.614c-.348-1.208-.706-2.416-1.054-3.633a223.084 223.084 0 0119.413-5.692c.261 1.247.522 2.484.783 3.71z" fill="#6C53E4"/><path d="M151.272 107.767c-28.945-1.749-57.93 2.493-85.424 12.513-3.79-12.426-7.57-24.852-11.36-37.279 31.797-11.585 65.306-16.494 98.775-14.465-.667 13.074-1.324 26.148-1.991 39.231z" fill="#6C53E4"/><path d="M65.569 112.608c-2.301-7.779-4.612-15.557-6.913-23.326 2.9-1.024 4.65-4.087 3.877-6.909 26.838-8.822 54.797-12.919 82.814-12.127-.058 2.948 2.359 5.392 5.404 5.547-.348 8.165-.706 16.33-1.054 24.495-2.803-.145-5.124 2.184-5.182 5.131-24.604-.696-49.15 2.899-72.72 10.658-.764-2.831-3.558-4.416-6.226-3.469z" fill="#D4CBFE"/><path d="M120.816 87.726c.416 7.43-4.872 13.847-11.775 14.803-6.903.937-13.486-3.836-14.763-11.15-1.276-7.306 3.925-14.524 11.689-15.587 7.763-1.072 14.434 4.513 14.849 11.934z" fill="#6C53E4"/><path d="M108.09 100.307l-.348-2.397a11.286 11.286 0 01-2.977-.028c-.735-.107-1.267-.793-1.199-1.576 0-.029.009-.057.009-.096.068-.85.842-1.488 1.663-1.353a8.311 8.311 0 002.727.01c1.392-.232 2.281-.938 2.146-1.943-.126-.956-.996-1.449-2.929-1.768-2.785-.464-4.805-1.362-5.202-3.797-.357-2.203.938-4.242 3.606-5.237l-.348-2.387c.851-.145 1.692-.28 2.543-.416.106.744.203 1.479.309 2.223a11.18 11.18 0 012.398-.03 1.44 1.44 0 011.276 1.624 1.518 1.518 0 01-1.711 1.305 7.621 7.621 0 00-2.282.038c-1.653.27-2.088 1.073-1.982 1.769.126.83 1.083 1.198 3.336 1.671 3.142.6 4.495 1.836 4.766 4.107.261 2.251-1.054 4.377-3.77 5.314l.348 2.57c-.813.136-1.596.262-2.379.397z" fill="#D4CBFE"/><path d="M90.556 92.867a231.283 231.283 0 00-19.722 5.179c-.319-1.218-.628-2.435-.947-3.653a237.677 237.677 0 0119.993-5.256c.232 1.237.454 2.483.676 3.73zm54.121-5.054a228.93 228.93 0 00-20.283.358l-.203-3.788a232.14 232.14 0 0120.573-.367l-.087 3.797z" fill="#50BFA5"/><path d="M166.045 83.93H46.425v52.613h119.62V83.929z" fill="#FF6876"/><path d="M166.046 123.112h-29.603c-1.315 0-2.378 1.111-2.378 2.483s1.063 2.483 2.378 2.483h-3.838c-1.315 0-2.378 1.111-2.378 2.484 0 1.372 1.063 2.483 2.378 2.483h.667c-1.315 0-2.378 1.111-2.378 2.483 0 .358.067.696.203.995h34.949v-13.411z" fill="#B75742"/><path d="M159.72 86.519H50.832v4.087H159.72v-4.087z" fill="#fff"/><path d="M98.272 135.896h-49.14a4.018 4.018 0 01-4.023-4.02v-24.64a4.018 4.018 0 014.022-4.02h49.141a4.018 4.018 0 014.022 4.02v24.64a4.03 4.03 0 01-4.022 4.02z" fill="#FFADB5"/><path d="M62.861 109.719H48.785v8.185h14.076v-8.185zm35.809-2.077H73.7v1.526h24.97v-1.526zm-1.856 17.45h-45.95v1.884h45.95v-1.884zm0 4.446h-45.95v1.884h45.95v-1.884z" fill="#F2F2F2"/><path d="M102.99 97.36H52.215v1.353h50.775v-1.352z" fill="#fff"/><path d="M132.053 88.606c6.247 0 11.312-5.061 11.312-11.305s-5.065-11.306-11.312-11.306c-6.247 0-11.311 5.062-11.311 11.306 0 6.244 5.064 11.305 11.311 11.305z" fill="#FAE0B2"/><path d="M139.819 71.851c3.007 4.29 1.972 10.204-2.32 13.21-4.293 3.004-10.209 1.97-13.216-2.32-3.007-4.29-1.972-10.204 2.32-13.209 4.293-3.005 10.209-1.962 13.216 2.32z" fill="#F7CC7F"/><path d="M133.143 83.968l-.416-1.527a7.43 7.43 0 01-2.02.174.97.97 0 01-.919-.947v-.058a.962.962 0 011.025-.976c.57.039 1.199 0 1.827-.174.918-.251 1.45-.773 1.276-1.41-.164-.61-.783-.86-2.088-.938-1.876-.116-3.268-.599-3.693-2.164-.387-1.42.319-2.793 1.943-3.595l-.416-1.526 1.576-.426.387 1.42a6.782 6.782 0 011.527-.183c.532 0 .958.425.967.947a.964.964 0 01-.986.976 5.103 5.103 0 00-1.469.184c-1.045.28-1.267.821-1.141 1.275.145.532.802.715 2.301.86 2.098.155 3.113.831 3.499 2.28.387 1.43-.299 2.928-2.059 3.75l.445 1.642-1.566.416z" fill="#fff"/><path d="M150.713 121.465c4.418-4.415 4.418-11.574 0-15.989-4.417-4.415-11.579-4.415-15.996 0s-4.417 11.574 0 15.989c4.417 4.414 11.579 4.414 15.996 0z" fill="#FAE0B2"/><path d="M150.491 108.018c3.006 4.29 1.972 10.204-2.32 13.209-4.293 3.005-10.21 1.971-13.216-2.319-3.007-4.29-1.972-10.204 2.32-13.209 4.293-3.005 10.199-1.961 13.216 2.319z" fill="#F7CC7F"/><path d="M143.815 120.145l-.416-1.527a7.405 7.405 0 01-2.021.174.97.97 0 01-.918-.947v-.058a.963.963 0 011.025-.976c.57.039 1.199 0 1.827-.174.918-.251 1.45-.773 1.276-1.41-.164-.609-.783-.86-2.088-.938-1.876-.116-3.268-.599-3.693-2.164-.387-1.421.319-2.793 1.943-3.595l-.416-1.526 1.576-.426.387 1.421a6.803 6.803 0 011.527-.184c.532 0 .957.425.967.947a.963.963 0 01-.986.976 5.09 5.09 0 00-1.47.184c-1.044.28-1.266.821-1.14 1.275.145.532.802.715 2.301.86 2.097.155 3.113.831 3.499 2.281.387 1.43-.299 2.927-2.059 3.749l.445 1.642-1.566.416z" fill="#fff"/><path d="M120.933 110.63c6.246-.104 11.226-5.25 11.122-11.493-.104-6.243-5.252-11.22-11.499-11.116-6.246.104-11.226 5.25-11.121 11.493.104 6.243 5.252 11.22 11.498 11.116z" fill="#FAE0B2"/><path d="M124.595 107.987c4.785-2.13 6.936-7.733 4.805-12.515-2.13-4.783-7.737-6.933-12.521-4.803-4.785 2.13-6.937 7.733-4.806 12.515 2.131 4.782 7.737 6.933 12.522 4.803z" fill="#F7CC7F"/><path d="M117.804 105.41l.541-1.488a7.714 7.714 0 01-1.759-1.015.965.965 0 01-.203-1.304l.039-.048a.96.96 0 011.392-.213c.444.358.976.686 1.595.908.889.329 1.634.203 1.856-.425.213-.599-.145-1.15-1.17-1.961-1.469-1.17-2.33-2.368-1.779-3.894.503-1.382 1.866-2.107 3.665-1.827l.541-1.488 1.537.56-.503 1.382c.561.232 1.006.474 1.354.725a.96.96 0 01.242 1.334.954.954 0 01-1.364.232 5.226 5.226 0 00-1.305-.696c-1.015-.367-1.508-.048-1.663.386-.183.522.242 1.044 1.393 2.03 1.624 1.333 2.068 2.464 1.556 3.874-.503 1.392-1.924 2.223-3.838 1.885l-.58 1.594-1.547-.551z" fill="#fff"/><path d="M134.069 125.605c0 1.372 1.063 2.483 2.378 2.483h-3.838c-1.315 0-2.379 1.111-2.379 2.483s1.064 2.484 2.379 2.484h.667c-.339 0-.667.077-.957.212h27.398v-10.155h-23.28c-1.305 0-2.368 1.111-2.368 2.493z" fill="#B75742"/><path d="M4.555 135.741c0 .445.328.802.744.802h185.669c.415 0 .744-.357.744-.802 0-.444-.329-.802-.744-.802H5.299c-.416 0-.744.367-.744.802z" fill="#151521"/><path d="M166.34 138.031h-30.57a2.223 2.223 0 010-4.445h30.57a2.222 2.222 0 110 4.445z" fill="#F7CC7F"/><path d="M165.726 133.596h-30.569a2.223 2.223 0 010-4.445h30.569c1.228 0 2.224.995 2.224 2.222a2.23 2.23 0 01-2.224 2.223z" fill="#FAE0B2"/><path d="M169.312 129.16h-30.569a2.222 2.222 0 110-4.445h30.569c1.228 0 2.224.995 2.224 2.223a2.23 2.23 0 01-2.224 2.222z" fill="#F7CC7F"/><path d="M130.427 33.045l.396 2.629-4.167 1.092.097 3.913-2.987 1.334.676 1.507 3.983-1.778-.087-3.71 4.332-1.131-.58-3.962-1.663.106z" fill="#151521"/><path d="M91.05 24.726l.802-1.99a10.53 10.53 0 01-2.33-1.46 1.308 1.308 0 01-.213-1.778l.048-.067a1.313 1.313 0 011.905-.223c.59.503 1.295.976 2.117 1.305 1.199.483 2.195.348 2.533-.493.319-.792-.145-1.565-1.489-2.715-1.943-1.662-3.045-3.324-2.223-5.353.744-1.846 2.63-2.764 5.046-2.3l.803-1.99 2.049.83-.744 1.846a9.629 9.629 0 011.798 1.044c.57.425.686 1.236.261 1.816a1.31 1.31 0 01-1.866.251 6.83 6.83 0 00-1.74-1.005c-1.363-.55-2.04-.135-2.272.445-.28.696.28 1.43 1.788 2.812 2.137 1.884 2.678 3.44 1.924 5.324-.754 1.865-2.716 2.928-5.297 2.377l-.861 2.135-2.04-.811z" fill="#6C53E4"/><path d="M94.848 45.964a.838.838 0 01-.145 1.053c-.57.532-1.489 1.15-2.61 1.575-1.634.61-3.442.667-5.076-.067-1.015-.464-1.953-1.295-2.61-2.377l-.967.357a.622.622 0 01-.812-.367l-.01-.029a.622.622 0 01.368-.812l.792-.299c-.125-.26-.212-.425-.27-.57a5.505 5.505 0 01-.252-.89l-.812.31a.622.622 0 01-.812-.367.621.621 0 01.367-.812l.987-.367c-.155-1.237.01-2.454.473-3.478.783-1.73 2.272-2.967 3.974-3.605.995-.377 1.808-.483 2.475-.492a.846.846 0 01.86.811v.01a.849.849 0 01-.822.889c-.541.02-1.18.125-1.924.406-1.082.405-2.05 1.16-2.59 2.328-.31.677-.455 1.498-.29 2.31l5.558-2.087a.622.622 0 01.813.367.622.622 0 01-.368.811l-5.81 2.175c.077.28.155.56.222.734.087.222.165.444.3.734l5.82-2.184a.648.648 0 01.831.377.647.647 0 01-.377.831l-5.568 2.088c.444.647 1.015 1.14 1.633 1.42 1.219.531 2.33.502 3.568.039a6.829 6.829 0 001.856-1.044.836.836 0 011.228.222z" fill="#86B1F2"/><path d="M79.669 26.146l-2.533.26-.86-4.019-3.732-.077-1.14-2.9-1.47.571 1.517 3.884 3.549.078.889 4.174 3.8-.387-.02-1.584z" fill="#151521"/><path d="M108.848 23.15l2.697.89s4.283-1.392 4.708-2.261c.426-.87.542-2.986 1.151-3.044.609-.058 1.788.145 2.069 1.585.203 1.053-1.335 4.087-1.093 4.415.155.203 1.692.764 2.823 1.15a2.096 2.096 0 011.392 1.701 1.157 1.157 0 01-.725 1.247l-.773.299.251.802a1.165 1.165 0 01-.735 1.44l-.599.203.193.492a1.146 1.146 0 01-.744 1.527l-.522.155.019.145c.087.58-.28 1.15-.841 1.295l-.522.135-7.193-2.377a5.053 5.053 0 01-1.827-1.063l-2.388-1.256a.593.593 0 01-.28-.725l2.214-6.377a.554.554 0 01.725-.377z" fill="#FAE0B2"/><path d="M66.115 51.704l.57-2.831 2.66-1.14a.4.4 0 00.038-.715l-2.523-1.411-.261-2.88a.4.4 0 00-.668-.26l-2.126 1.951-2.823-.647a.399.399 0 00-.455.55l1.199 2.629-1.48 2.483a.399.399 0 00.388.6l2.87-.33 1.905 2.175c.232.26.638.145.706-.174z" fill="#FFADB5"/><path d="M31.407 121.295s-3.548 2.551-4.099 3.314c-.802 1.102 6.004 3.15 5.26 1.865a19.675 19.675 0 01-.687-1.391c-.116-.522 1.334-1.933 1.334-1.933l-1.808-1.855z" fill="#F7A491"/><path d="M34.408 128.619l-2.397-3.391s-1.499-.348-3.045-2.088c0 0-1.383.532-2.243 1.672 0 0 1.614 1.739 4.09 3.691 0 0 1.469 1.305 3.509 1.991 2.03.686.086-1.875.086-1.875z" fill="#F7CC7F"/><path d="M1.788 74.75s.435.386.59.502c.184.136.754.512.754.512s2.069 1.18 2.137 1.025c.067-.155.067-.6-.039-.715-.106-.116-.396-.242-.503-.358-.106-.116-.135-.357-.01-.483.136-.135.842.251.842.251s.57.319.812.706c.831 1.333.58 1.41.686 1.575.136.203 3.036 1.517 3.036 1.517s8.672 3.604 9.146 3.797h.01c.067.406-.155.773-.262 1.13-.203 1.237-.58 1.324-.86 2.513-1.334-.676-10.538-5.74-11.476-6.271 0 0-1.402-.242-2.281-.416-.88-.183-1.644-.734-1.886-.821-.038-.01-.821-.348-1.682-1.015-.744-.58.213-.357.213-.357s1.566.83 1.605.696c.029-.097-.851-.503-1.673-1.131-.212-.164-.425-.319-.619-.473-.502-.387-.415-.802.175-.474.212.116.55.319.773.493.242.193.522.29.754.415.454.261.773.455.773.425 0-.029.126-.038-.096-.222-.261-.212-.928-.55-1.296-.898-.212-.194-.667-.58-.667-.58s-.59-.706-.56-.754c.154-.251.696.116.937.425.252.116.725.532.725.532s1.141.637 1.228.483c.039-.068-.619-.541-1.189-1.092-.532-.522-.986-1.13-.9-1.246.156-.213.803.309.803.309z" fill="#F8A492"/><path d="M25.984 95.042l.561 2.773 14.096 12.813-10.084 10.204 2.726 2.782s14.898-10.938 15.44-12.368c.831-2.203-10.683-16.823-10.683-16.823l-12.056.619z" fill="#151521"/><path d="M16.211 128.562s-2.842 3.101-3.403 3.855c-.802 1.102 5.202 2.715 4.457 1.43a19.675 19.675 0 01-.686-1.391c-.116-.522 1.334-1.933 1.334-1.933l-1.702-1.961z" fill="#F7A491"/><path d="M20.438 133.75l-3.916-1.43s-1.48.677-3.732.126c0 0-.792 1.121-.84 2.541 0 0 7.414.947 9.483.358 2.06-.59-.995-1.595-.995-1.595z" fill="#F7CC7F"/><path d="M26.468 96.326l.628 17.48-12.51 15.326 3.384 1.855s13.834-11.866 15.352-15.171c.938-2.048 4.109-20.581 4.109-20.581l-10.963 1.091z" fill="#151521"/><path d="M37.84 94.896c-1.15-2.59-1.015-21.122-5.472-25.46-1.566.26-2.688.415-2.949.482-.232 1.913-.493 8.919-.648 15.345-.106 4.28 0 8.764-.522 11.131-.328 1.45 10.645.86 9.59-1.498z" fill="#FAE0B2"/><path d="M25.768 70.865c-1.257.29-2.175.483-3.819 2.908-1.576 2.32-5.056 7.827-5.056 7.827l-9.194-4.078-.426 4.658s10.393 5.401 11.863 4.918c1.47-.483 5.588-6.513 5.897-6.918.068-.097-.348 6.435-.348 7.479 0 1.043-1.991 10.126-1.991 10.126s5.056 1.247 6.042-1.014c3.026-6.929.706-26.863.706-26.863s-2.775.754-3.674.957z" fill="#FF6876"/><path d="M44.644 51.028c-.386-.32-.55-1.102-.618-1.595l-.174-.657c.154-.068 3.219-.502 4.147-.522.087.29.135.541.106.696-.135.754-1.102 5.662-1.102 5.662l-2.639.049c0-.01.57-2.918.28-3.633z" fill="#F7A491"/><path d="M33.406 70.517s1.808 5.15 3.297 4.407c1.489-.745 9.861-9.277 9.948-9.683.087-.415.667-10.88.667-10.88l-3.316-.657-1.905 8.58s-6.129 5.856-7.366 6.436a2.249 2.249 0 00-1.325 1.797z" fill="#FF6876"/><path d="M38.296 96.132c1.005 0 1.372-.135 2.04-.338 0 0-1.905-10.754-3.017-21.422-.435-4.213-.841-5.943-2.581-5.633-.503.087-1.866.608-2.36.686 4.37 12.358 4.39 21.866 5.009 24.63.3 1.382.57 2.087.909 2.077z" fill="#FF6876"/><path d="M31.903 67.56l.454 1.865s.107 1.624-.648 1.769c-.908.174-2.262-1.189-2.262-1.189l-.783-5.266 3.239 2.822z" fill="#F7A491"/><path d="M31.903 67.56l.454 1.865s.107 1.624-.648 1.769c-.908.174-2.262-1.189-2.262-1.189l-.783-5.266 3.239 2.822z" fill="#F7A491"/><path d="M28.672 64.768l3.229 2.793.338 1.391c-1.227-.29-2.987-1.652-3.567-4.184z" fill="#F47458"/><path d="M31.917 59.927c.783 0 1.489.541 1.76 1.324.231.647.521 1.604.705 2.706.338 2.029-.812 3.874-1.817 4.029-1.006.145-3.394-.512-3.926-3.382-.222-1.227-.522-2.84.484-3.691.793-.667 1.895-.986 2.794-.986z" fill="#F7A491"/><path d="M28.966 66.777s-3.538-3.15-3.693-5.614c-.155-2.464 2.117-3.778 4.07-3.845.88-.03 1.47.01 2.378.125 1.953.242 3.21 1.111 2.765 2.706-.599 2.145-4.64.338-5.471 1.005-.687.55.425 1.865-.242 2.377-.619.473-.31.309-.097 1.217.213.88.29 2.03.29 2.03z" fill="#184655"/><path d="M27.605 63.917c.087.59.444 1.025.802.976.358-.048.58-.57.493-1.16-.087-.589-.444-1.023-.802-.975-.358.048-.58.57-.493 1.16z" fill="#F7A491"/><path d="M44.82 48.766s.57.329 1.141 1.083c0 0 1.489-.957 1.44-1.257-.067-.405-1.595.348-1.595.348l-.986-.174z" fill="#F47458"/><path d="M6.52 28.958l40.295 20.736c2.166 1.111 4.911.116 6.12-2.242L63.22 27.48c1.209-2.357.435-5.17-1.73-6.28L21.205.453c-2.175-1.111-4.911-.107-6.13 2.242L4.79 22.677c-1.208 2.348-.435 5.17 1.73 6.28z" fill="#FF6876"/><path opacity=".5" d="M7.964 16.167l-3.12 6.057 48.152 24.78 3.12-6.056L7.964 16.167z" fill="#F2F2F2"/><path d="M30.849 8.774l-10.61-5.471-3.037 5.882 10.61 5.472 3.037-5.883z" fill="#fff"/><path d="M44.809 48.727c-.068-.193-.213-.454-.145-.56.425-.657-.03-1.372-.349-.812-.183.329-.502 1.034-.473 1.411.019.27.29 1.295.29 1.295s1.073-.261.677-1.334zm121.397 69.012s-.252 3.092-.048 4.088c.106.541.705 1.642.435 2.145-.271.502-.59.628-.59.628l-7.135.116c-.387.009-.135-.242.184-.464.512-.367.928-.618 2.562-1.391.106-.049.493-.29.638-.377.357-.213.715-.551 1.025-.889.512-.561.56-3.276.56-3.276l2.369-.58z" fill="#F7A491"/><path d="M160.632 76.701s-3.064-1.507-2.475 1.778c.59 3.285 5.086 40.245 5.086 40.245l4.205.232s.541-12.32.416-14.088c-.116-1.768-.812-4.503-.812-4.503l-.358-10.928-3.973-13.509-2.089.773z" fill="#355389"/><path d="M162.244 122.483c1.885.474 3.277.155 4.06-.154.203.56.464 1.265.329 1.671-.174.493-.396.715-.619.725-1.721.048-6.332 0-7.647.01a.212.212 0 01-.164-.348c.328-.387 3.905-1.817 4.041-1.904z" fill="#3C8F7C"/><path d="M158.151 54.487s-2.591-4.986-2.997-6.822c-.406-1.826-1.798-11.054-1.682-11.644.116-.59 2.32-2.02 2.049-2.522-.271-.502-2.368-.502-2.852-.464-.483.04-1.45.32-1.856.667-.416.338.464 11.393.725 13.77.261 2.377 3.48 9.701 3.48 9.701l3.133-2.686zm20.201 38.863s2.136-2.241 2.61-3.15c.251-.483.483-1.72 1.015-1.942.532-.222.86-.116.86-.116l5.608 4.407c.309.241-.049.27-.435.25-.629-.038-1.112-.106-2.872-.53a11.24 11.24 0 00-.734-.107c-.416-.058-.9-.02-1.354.048-.754.116-2.504 2.194-2.504 2.194l-2.194-1.053z" fill="#F7A491"/><path d="M184.414 92.152c-1.17-1.556-2.455-2.184-3.258-2.435.194-.56.416-1.295.774-1.527.444-.28.754-.222.928-.087 1.363 1.053 4.94 3.923 5.974 4.744a.213.213 0 01-.087.377c-.483.097-4.166-1.043-4.331-1.072z" fill="#3C8F7C"/><path d="M178.4 52.97c-1.334-2.793-4.282-4.33-7.134-3.585-1.025-1.382-2.611-2.358-4.264-2.59-3.258-.464-7.454 1.121-7.028 4.513-1.025 2.377-.774 5.643 1.276 7.247-.377 3.12 2.755 5.894 6.458 5.517 1.489 2.058 4.08 3.266 6.506 2.793.58-.116 1.47-.329 1.615-.3-.194-.02 4.225 2.87 7.27-2.28 3.132-5.247.068-11.122-4.699-11.315z" fill="#184655"/><path d="M159.395 77.89s6.873-3.053 6.989-2.706c.861 2.774 3.548 1.885 5.134 6.774.667 2.048 1.353 15.663 1.353 15.663s2.717-2.251 6.584-6.184c.3-.3 3.21 2.464 3.21 2.464-7.696 10.388-11.012 10.929-12.298 10.349-2.678-1.218-8.333-18.195-8.324-18.195-.676-1.314-2.648-8.165-2.648-8.165z" fill="#466EB6"/><path d="M170.793 58.7s9.938-.01 12.065-.136c1.924-.106 9.571.087 9.861.049.3-.039 2.272-3.382 2.601-3.015.329.358-1.102 1.662-.657 1.99.444.339 5.181-.415 5.123-.067-.116.657-2.88.57-2.88.889 0 .319 2.89-.174 3.093.348.194.521-2.784.212-2.9.444-.116.232 2.765.667 2.465 1.15-.164.26-2.552-.444-2.542-.077.009.357 1.759 1.188 1.546 1.468-.212.29-1.372-.889-2.388-.898-1.015-.02-1.74-.541-3.354-.097-.803.223-6.893.967-12.046 1.401-5.279.454-9.61.59-9.61.59l-.377-4.04z" fill="#F7A491"/><path d="M156.058 65.725c-.136-1.595.183-2.822.251-3.353-.483-1.653-1.508-5.19-1.875-5.885 0 0 1.73-3.324 3.499-3.305 0 0 1.808 4.078 3.21 4.803.019-.01.493.212.706.212 1.353-.01 6.071-.154 6.951-.164l-.493 6.696c-3.423 6.706-2.494 10.214-1.189 11.518.609.61-8.537 3.093-8.953 2.233-.512-1.025-1.846-9.528-2.107-12.755z" fill="#76767C"/><path d="M166.402 58.284c.87-.415 7.174-.203 7.174-.203s.88 4.387.174 5.44c0 0-5.636.841-5.472 1.305l-1.876-6.542z" fill="#76767C"/><path d="M164.753 55.463s-.106 2.397 0 3.392c.116.995-1.025 3.334-3.132 3.372-2.108.039-.31-2.242-.126-3.217.184-.977.406-4.822.406-4.822l2.852 1.275z" fill="#F7A491"/><path d="M161.899 54.188s-.048.889-.126 1.923c.668.792 1.692 1.198 2.939.715.01-.744.039-1.363.039-1.363l-2.852-1.275z" fill="#F47458"/><path d="M164.924 48.342s1.199.357 1.866 1.555c.667 1.199.957 4.6-1.624 6.001-2.582 1.401-4.351-.957-4.235-3.13.116-2.165.783-5.035 3.993-4.426z" fill="#F7A491"/><path d="M160.415 52.051c.174.541.571.89.88.793.309-.107.425-.619.251-1.16-.174-.54-.57-.889-.879-.792-.319.106-.426.618-.252 1.16z" fill="#F7A491"/><path d="M164.562 48.245s1.306 3.575 2.649 3.98c1.344.407 1.199 2.146 1.199 2.146s.252-4.04-.967-5.054c-1.208-1.005-2.881-1.072-2.881-1.072z" fill="#184655"/><path d="M166.626 52.911c-.223.551-.097 1.121.28 1.266.377.145.851-.183 1.073-.734.222-.55.097-1.121-.28-1.266-.377-.145-.861.184-1.073.734z" fill="#F7A491"/><path d="M150.441 34.553s2.91.125 3.258.125c.339 0 1.335-1.024 1.335-1.024l-4.593.899z" fill="#F47458"/><path d="M153.208 34.402c6.094-1.373 9.92-7.424 8.547-13.514-1.374-6.091-7.428-9.916-13.522-8.543-6.094 1.373-9.92 7.424-8.546 13.515 1.373 6.09 7.427 9.915 13.521 8.542z" fill="#FAE0B2"/><path d="M158.487 17.932c3.007 4.29 1.972 10.204-2.32 13.209-4.293 3.005-10.209 1.971-13.216-2.32-3.007-4.29-1.972-10.203 2.32-13.208 4.293-3.005 10.209-1.971 13.216 2.319z" fill="#F7CC7F"/><path d="M151.819 30.05l-.416-1.528a7.437 7.437 0 01-2.021.174.97.97 0 01-.918-.947v-.058a.962.962 0 011.025-.976c.57.04 1.198 0 1.827-.173.918-.252 1.45-.773 1.276-1.411-.164-.609-.783-.86-2.088-.938-1.876-.115-3.268-.599-3.693-2.164-.387-1.42.319-2.793 1.943-3.595l-.416-1.526 1.576-.425.387 1.42a6.776 6.776 0 011.527-.183c.532 0 .957.425.967.946a.964.964 0 01-.986.976 5.113 5.113 0 00-1.47.184c-1.044.28-1.266.821-1.14 1.276.145.53.802.715 2.301.86 2.097.154 3.113.83 3.499 2.28.387 1.43-.299 2.928-2.059 3.749l.445 1.643-1.566.415z" fill="#fff"/><path d="M153.695 34.678l1.199-1.082s-.57-.677-.329-.812c.387-.212 1.045.609.986.802-.058.203-.763.84-.763.84l-1.093.252z" fill="#F7A491"/></svg>